<svg width="49" height="81" viewBox="0 0 49 81" fill="none" xmlns="http://www.w3.org/2000/svg">
<g clip-path="url(#clip0_978_4226)">
<path d="M42.0476 7.80015C37.6163 3.0262 31.3732 0.177548 24.8543 0.000734726C18.2369 -0.176078 11.7574 2.39753 7.08981 7.05361C2.40251 11.7293 -0.177472 18.2321 -0.000221332 24.8331C0.117946 28.723 1.18145 32.554 3.03274 35.9724C3.99777 37.7798 5.19914 39.4497 6.36111 41.1392C8.52751 44.3022 10.753 47.4456 12.88 50.6478C13.2739 51.2372 13.5299 51.8659 13.7269 52.5535C14.0026 53.5358 13.9435 54.5181 14.042 55.52C14.1995 57.072 14.7707 58.5455 15.5782 59.8421C17.2522 62.5139 20.0094 64.2428 23.1999 64.2624C25.3466 64.2821 27.6312 64.4589 29.6598 63.6338C32.673 62.4157 34.8 59.4885 34.997 56.2469C35.0561 55.4218 35.0167 54.5967 35.1742 53.7715C35.3909 52.7303 35.8044 51.7284 36.3756 50.8246C36.6316 50.4317 36.9073 50.0585 37.1634 49.6852C38.4041 47.8974 39.6252 46.1096 40.8659 44.3219C41.7916 42.9663 42.6975 41.5911 43.6626 40.2552C44.5685 39.0175 45.4548 37.7994 46.1835 36.4242C47.0894 34.715 47.7984 32.888 48.2711 31.0216C48.7635 29.0963 48.9998 27.1121 48.9998 25.1082C48.9801 18.7626 46.4001 12.5152 42.0476 7.80015Z" fill="#E7AEB8"/>
<path d="M32.732 75.1664C27.8872 75.1467 23.062 75.1271 18.2172 75.1074C17.5279 75.1074 16.8386 75.1074 16.1492 75.1074C16.0311 75.1074 15.972 75.2253 15.9326 75.3235V75.3432C15.8932 75.461 15.9129 75.5986 15.972 75.7361C16.0114 75.8343 16.0705 75.9522 16.1689 76.0504C17.2127 77.0917 18.2566 78.1329 19.3004 79.1741C19.7927 79.6653 20.2851 80.1564 20.7775 80.6476C21.1123 80.9815 21.3683 80.9815 21.8213 80.9815C23.6332 80.9815 25.4451 80.9815 27.257 80.9815C27.6312 80.9815 28.3205 81.1191 28.675 80.9423C29.0689 80.7458 29.4431 80.1761 29.7385 79.8814C30.9595 78.6633 32.1806 77.4453 33.4017 76.2272C33.6971 75.8736 33.0865 75.1664 32.732 75.1664Z" fill="#447762"/>
<path d="M35.864 66.2265C35.5686 65.6765 34.9975 65.4014 34.387 65.3621C33.4613 65.3032 32.5357 65.3621 31.61 65.3621C27.3954 65.3621 23.1808 65.3621 18.9661 65.3621C17.8239 65.3621 16.7013 65.3425 15.559 65.3621C14.6727 65.3818 13.7077 65.8533 13.4911 66.7766C13.2744 67.7 13.3729 69.0359 14.2591 69.5664C15.0666 70.0379 16.4452 69.8021 17.3315 69.8021C19.3009 69.8021 21.2901 69.8021 23.2595 69.8021C26.7652 69.8021 30.2905 69.8414 33.7961 69.8021C33.8355 69.8021 33.8749 69.8021 33.9143 69.8021C33.934 69.8021 33.9734 69.8021 33.9931 69.8021C34.0128 69.8021 34.0325 69.8021 34.0522 69.8021C35.2338 69.7235 36.0413 68.977 36.061 67.7786C36.0807 67.2481 36.1201 66.698 35.864 66.2265Z" fill="#E7AEB8"/>
<path d="M35.9823 70.5108C35.7066 69.7053 34.9188 69.332 34.1113 69.3124C33.0084 69.2927 31.8859 69.3124 30.783 69.3124C26.7062 69.3124 22.6491 69.3124 18.5724 69.3124C17.5285 69.3124 16.465 69.2731 15.4212 69.3124C14.4759 69.3517 13.5502 69.9607 13.4321 70.9626C13.3139 72.0825 14.2396 72.9076 15.3031 72.9272C18.1982 72.9862 21.1129 72.9272 24.0277 72.9272C27.3758 72.9272 30.7436 72.9272 34.0916 72.9272C34.1113 72.9272 34.1507 72.9272 34.1704 72.9272C35.3915 72.829 36.4156 71.7485 35.9823 70.5108Z" fill="#447762"/>
<path d="M36.0217 73.7319C35.8248 72.8872 35.037 72.4746 34.2295 72.455C33.1266 72.4353 32.004 72.455 30.9012 72.455C26.8244 72.455 22.7673 72.455 18.6905 72.455C17.6467 72.455 16.5832 72.4157 15.5394 72.455C14.6532 72.4746 13.6881 72.9461 13.4715 73.8695C13.2155 74.9893 14.1214 75.8341 15.1849 75.893C18.08 76.0109 21.0145 75.893 23.9096 75.893C27.238 75.893 30.5663 75.893 33.8947 75.893C33.9144 75.893 33.9538 75.893 33.9735 75.893C35.1355 75.8341 36.3368 74.9893 36.0217 73.7319Z" fill="#E7AEB8"/>
<path d="M18.1383 14.7539C18.1383 14.7539 17.7641 19.3314 24.736 21.5317C24.736 21.5121 25.504 15.972 18.1383 14.7539Z" fill="#447762"/>
<path d="M17.7643 21.0801C17.7643 21.0801 17.3901 25.6576 24.3619 27.8579C24.3619 27.8579 25.13 22.2981 17.7643 21.0801Z" fill="#447762"/>
<path d="M17.8824 27.7988C17.8824 27.7988 17.5082 32.3763 24.4801 34.5767C24.4801 34.557 25.2482 29.0169 17.8824 27.7988Z" fill="#447762"/>
<path d="M17.9615 34.1641C17.9615 34.1641 17.5873 38.7416 24.5592 40.9419C24.5592 40.9419 25.3273 35.3821 17.9615 34.1641Z" fill="#447762"/>
<path d="M24.4998 21.7089C27.3949 20.8445 30.6445 18.9585 31.0383 15.658C31.058 15.4615 31.0777 15.2454 31.058 15.049C31.058 15.0097 30.9399 14.99 30.9005 15.0097C28.8916 15.3043 26.804 16.0312 25.5239 17.6815C24.7952 18.6049 24.3816 19.764 24.3225 20.9427C24.3028 21.1785 24.3028 21.4339 24.3422 21.6696C24.3619 21.7286 24.4801 21.7286 24.4998 21.7089Z" fill="#345948"/>
<path d="M31.1963 21.3949C31.1963 21.3556 31.1176 21.3359 31.0585 21.3359C29.0299 21.6306 26.9226 22.3772 25.6425 24.0471C24.9335 24.9704 24.5199 26.1295 24.4805 27.2886C24.4805 27.5244 24.4608 27.7601 24.5002 27.9959C24.5002 28.0548 24.6184 28.0745 24.6578 28.0548C27.5529 27.1904 30.8025 25.2848 31.1767 21.9843C31.1963 21.7878 31.216 21.5913 31.1963 21.3949Z" fill="#345948"/>
<path d="M30.9797 28.0546C28.9709 28.3493 26.8833 29.0762 25.5834 30.7264C24.8547 31.6498 24.4412 32.8089 24.3821 33.9876C24.3624 34.2234 24.3624 34.4788 24.4018 34.7145C24.4018 34.7735 24.5199 34.7538 24.5593 34.7538C27.4544 33.8894 30.704 32.0034 31.0979 28.7029C31.1176 28.5064 31.1373 28.2903 31.1176 28.0939C31.1373 28.0546 31.0191 28.0349 30.9797 28.0546Z" fill="#345948"/>
<path d="M30.9601 34.4199C28.9512 34.7146 26.8636 35.4415 25.5834 37.0918C24.8547 38.0151 24.4412 39.1742 24.3821 40.353C24.3624 40.5887 24.3624 40.8441 24.4018 41.0799C24.4018 41.1388 24.5199 41.1388 24.5593 41.1192C27.4544 40.2548 30.704 38.3687 31.0979 35.0682C31.1176 34.8718 31.1373 34.6557 31.1176 34.4592C31.1176 34.4199 31.0191 34.4199 30.9601 34.4199Z" fill="#345948"/>
<path d="M24.7366 16.6208C24.7366 16.6012 24.7366 16.5619 24.7366 16.5422C24.7366 16.3851 24.2245 16.3654 24.2245 16.5226C24.2245 16.9548 24.2245 17.387 24.2245 17.8192C24.2245 18.9783 24.2245 20.1571 24.2245 21.3162C24.2245 23.045 24.2245 24.7738 24.2245 26.5027C24.2245 28.6048 24.2245 30.7266 24.2245 32.8287C24.2245 35.1272 24.2245 37.4258 24.2245 39.744C24.2245 42.0819 24.2245 44.4197 24.2245 46.7576C24.2245 48.9383 24.2245 51.119 24.2245 53.28C24.2245 55.1071 24.2245 56.9342 24.2245 58.7809C24.2245 60.0972 24.2245 61.4331 24.2245 62.7494C24.2245 63.3584 24.1654 64.0067 24.2245 64.6157C24.2245 64.6354 24.2245 64.6747 24.2245 64.6943C24.2245 64.8515 24.7366 64.8711 24.7366 64.7139C24.7366 64.2817 24.7366 63.8495 24.7366 63.4173C24.7366 62.2582 24.7366 61.0795 24.7366 59.9204C24.7366 58.1915 24.7366 56.4627 24.7366 54.7338C24.7366 52.6317 24.7366 50.51 24.7366 48.4079C24.7366 46.1093 24.7366 43.8107 24.7366 41.4925C24.7366 39.1546 24.7366 36.8168 24.7366 34.4789C24.7366 32.2982 24.7366 30.1175 24.7366 27.9565C24.7366 26.1294 24.7366 24.3023 24.7366 22.4556C24.7366 21.1394 24.7366 19.8034 24.7366 18.4872C24.7366 17.8781 24.7956 17.2298 24.7366 16.6208Z" fill="#345948"/>
<path d="M34.0917 60.7665C33.1858 60.5504 32.1026 60.7075 31.1769 60.7075C27.2577 60.7075 23.3385 60.7075 19.4193 60.7075C18.3361 60.7075 17.2726 60.6682 16.1894 60.7075C15.2243 60.7272 14.3184 61.179 13.8063 62.0238C13.1367 63.124 13.4321 64.5581 14.4759 65.3243C15.4016 65.9923 16.6817 65.8155 17.7649 65.8155C19.5965 65.8155 21.4281 65.8155 23.2597 65.8155C26.6275 65.8155 29.9952 65.8155 33.3827 65.8155C33.4024 65.8155 33.4418 65.8155 33.4615 65.8155C34.7613 65.7369 35.9627 64.7939 36.0809 63.4187C36.1596 62.1613 35.2931 61.0415 34.0917 60.7665Z" fill="#447762"/>
</g>
<defs>
<clipPath id="clip0_978_4226">
<rect width="49" height="81" fill="white"/>
</clipPath>
</defs>
</svg>
