<svg width="48" height="84" viewBox="0 0 48 84" fill="none" xmlns="http://www.w3.org/2000/svg">
<path d="M23.2374 0L2.001 50.1223C-4.78035 66.0893 6.50704 84 23.3266 84C41.5292 84 53.4858 64.1917 45.4552 47.2066L23.2374 0Z" fill="#E7AEB8"/>
<path d="M36.6406 53.4285C36.3856 50.202 33.8872 46.8698 30.0122 47.0284C28.4315 47.0813 26.8509 47.8218 25.5762 49.1442L23.7917 50.9954L21.0893 48.1921C20.1206 47.1871 18.8969 46.6582 17.5202 46.6582C16.1945 46.6582 14.9198 47.1871 13.9511 48.1921C11.9625 50.2549 10.9428 53.164 11.1467 56.126C11.2997 57.8185 11.9625 59.564 13.0333 61.1508L24.1996 77.0185L33.1734 63.1607C35.1109 60.0929 36.8955 56.8136 36.6406 53.4285Z" fill="#447762"/>
</svg>
