<svg width="49" height="96" viewBox="0 0 49 96" fill="none" xmlns="http://www.w3.org/2000/svg">
<path d="M34.0389 1.61523C34.0389 1.61523 33.4987 7.11142 41.5051 9.9197C41.5244 9.89964 42.5276 3.24002 34.0389 1.61523Z" fill="#447762"/>
<path d="M33.4569 9.23633C33.4569 9.23633 32.9167 14.7325 40.923 17.5408C40.9423 17.5207 41.9455 10.8611 33.4569 9.23633Z" fill="#447762"/>
<path d="M33.4774 17.2988C33.4774 17.2988 32.9372 22.795 40.9435 25.6033C40.9435 25.6033 41.9467 18.9437 33.4774 17.2988Z" fill="#447762"/>
<path d="M33.4217 24.9824C33.4217 24.9824 32.8815 30.4786 40.8879 33.2869C40.8879 33.2869 41.8911 26.6273 33.4217 24.9824Z" fill="#447762"/>
<path d="M41.2552 10.1399C43.5124 9.47794 45.8082 8.39475 47.3516 6.50919C48.1619 5.50624 48.7599 4.28263 48.9336 2.99885C48.9721 2.75814 48.9914 2.51743 48.9721 2.27672C48.9721 2.21655 48.8371 2.21655 48.7792 2.23661C46.4448 2.55755 44.0333 3.37997 42.4899 5.32571C41.6217 6.42896 41.1201 7.83309 41.0429 9.23723C41.0237 9.51805 41.0237 9.81894 41.0622 10.0998C41.0815 10.1599 41.2166 10.1399 41.2552 10.1399Z" fill="#345948"/>
<path d="M48.9948 9.92008C48.9948 9.87996 48.8984 9.83984 48.8405 9.83984C48.8405 9.83984 48.8405 9.83984 48.8212 9.83984C46.4868 10.1608 44.0367 10.9832 42.5126 12.9691C41.6637 14.0723 41.1621 15.4564 41.0849 16.8806C41.0656 17.1614 41.0656 17.4422 41.1042 17.7231C41.1042 17.7832 41.2393 17.8033 41.2972 17.8033C43.5737 17.1414 45.8695 16.0582 47.4129 14.1325C48.2231 13.1295 48.8019 11.926 48.9562 10.6422C48.9755 10.3814 49.0141 10.1407 48.9948 9.92008Z" fill="#345948"/>
<path d="M48.5878 17.9235C46.2534 18.2445 43.8419 19.0669 42.2985 21.0126C41.4303 22.1159 40.9287 23.52 40.8515 24.9242C40.8322 25.225 40.8322 25.5259 40.8708 25.8068C40.8708 25.8669 41.0059 25.8669 41.0638 25.8469C43.321 25.1849 45.6168 24.1017 47.1602 22.2162C47.9704 21.2132 48.5685 19.9896 48.7421 18.7058C48.7807 18.4651 48.8 18.2244 48.7807 17.9837C48.7614 17.9235 48.6457 17.9035 48.5878 17.9235Z" fill="#345948"/>
<path d="M48.4335 25.6032C46.1184 25.9242 43.6876 26.7466 42.1442 28.6923C41.276 29.7956 40.7744 31.1997 40.6972 32.6038C40.678 32.8847 40.678 33.1856 40.7165 33.4664C40.7165 33.5266 40.8516 33.5266 40.9095 33.5266C43.1667 32.8646 45.4625 31.8015 47.0252 29.8959C47.8354 28.8929 48.4335 27.6693 48.6071 26.3855C48.6457 26.1448 48.665 25.9041 48.6457 25.6634C48.6264 25.6032 48.4914 25.5832 48.4335 25.6032Z" fill="#345948"/>
<path d="M41.0412 3.86089C41.0412 4.38242 41.0219 4.90396 41.0219 5.4255C41.0026 6.82963 40.964 8.25383 40.9447 9.65797C40.9062 11.7441 40.8676 13.8102 40.829 15.8963C40.7711 18.4438 40.7325 20.9713 40.6747 23.5188C40.6168 26.287 40.5589 29.0752 40.5203 31.8433C40.4624 34.6516 40.4046 37.4599 40.3467 40.2681C40.2888 42.8959 40.2502 45.5036 40.1923 48.1313C40.1538 50.3378 40.1152 52.5443 40.0573 54.7508C40.0187 56.3355 39.9994 57.9402 39.9608 59.5249C39.9415 60.267 39.903 61.0293 39.9223 61.7715C39.9223 61.8116 39.9223 61.8317 39.9223 61.8718C39.9223 62.0523 40.501 62.0724 40.501 61.9119C40.5203 61.3904 40.5203 60.8688 40.5396 60.3673C40.5589 58.9632 40.5975 57.539 40.6168 56.1349C40.6554 54.0487 40.6939 51.9826 40.7325 49.8965C40.7904 47.349 40.829 44.8215 40.8869 42.274C40.9447 39.5059 41.0026 36.7177 41.0412 33.9495C41.0991 31.1412 41.157 28.333 41.2148 25.5247C41.2727 22.897 41.3113 20.2893 41.3692 17.6615C41.4078 15.455 41.4464 13.2485 41.5042 11.042C41.5428 9.45737 41.5621 7.85265 41.6007 6.26798C41.62 5.52579 41.6586 4.76355 41.6393 4.02136C41.6393 3.98124 41.6393 3.96118 41.6393 3.92107C41.6393 3.72047 41.0605 3.70042 41.0412 3.86089Z" fill="#345948"/>
<path d="M23.658 34.6922C23.4072 30.6203 22.4812 26.5683 21.5358 22.6167C20.7834 19.4674 19.9539 16.3382 19.0471 13.229C18.2754 10.6013 17.4265 7.95349 16.2883 5.46616C15.6131 4.04197 14.8799 2.57765 13.8189 1.41423C13.1822 0.712158 12.3912 0.110385 11.4459 0.0100896C9.57453 -0.150383 8.26264 1.63488 7.41378 3.11925C6.27552 5.12516 5.54241 7.41189 4.90576 9.63845C4.46204 11.2031 4.07619 12.7677 3.76751 14.3523C3.76751 14.4326 3.74822 14.5128 3.72892 14.6131C2.64855 20.6308 1.60675 26.6686 0.700011 32.7265C0.468501 34.2911 0.236993 35.8557 0.0826533 37.4203C-0.0716862 38.9247 -0.110271 40.5094 0.892936 41.733C1.91543 42.9766 3.57458 43.5784 5.11798 43.6787C7.22085 43.8191 8.6292 45.6044 8.82213 47.6905C9.11151 50.7195 9.38161 53.7484 9.67099 56.7773C9.69029 56.9979 10.0375 56.9979 10.1726 56.9578C11.253 56.677 12.3526 56.4162 13.433 56.1354C13.6066 56.0953 13.7417 55.9749 13.7803 55.7944C14.3591 53.1667 14.9378 50.5389 15.5166 47.8911C15.8446 46.4068 16.1532 45.0227 17.3108 43.9595C18.179 43.1572 19.2207 42.8362 20.2625 42.415C21.3429 41.9737 22.3075 41.3318 22.9056 40.2486C23.8123 38.6238 23.7738 36.5176 23.658 34.6922Z" fill="#E7AEB8"/>
<path d="M18.3904 88.7921C18.3132 88.0098 18.3132 87.2075 18.2746 86.4252C18.0817 82.6139 17.8888 78.7826 17.6959 74.9714C17.4644 70.3779 17.2521 65.8044 17.0592 61.2109C16.982 59.5059 16.9242 57.7808 16.8663 56.0758C16.847 55.1731 16.7698 54.2303 16.847 53.3277C16.847 53.2274 16.8856 53.3477 16.8663 53.2274C16.847 52.9867 16.7698 52.9064 16.5383 52.8061C15.921 52.5454 15.1107 52.6055 14.4354 52.5855C12.3904 52.5253 10.3454 52.5855 8.30045 52.6457C7.87602 52.6657 7.45158 52.6657 7.02715 52.6858C6.79564 52.6858 6.37121 52.7459 6.37121 53.0669C6.35192 54.2704 6.31333 55.4539 6.29404 56.6575C6.04324 58.523 5.85031 60.4085 5.67668 62.274C5.27154 66.4864 4.98215 70.7189 4.90498 74.9514C4.82781 79.3242 4.8664 83.8175 5.69597 88.1302C6.17828 90.6576 7.06573 94.3084 9.76668 95.211C10.8856 95.5922 12.1975 95.6122 13.3551 95.5119C14.4354 95.4317 15.5158 95.1308 16.4226 94.509C17.6959 93.6264 18.3325 92.162 18.4483 90.6175C18.5061 89.9957 18.4483 89.414 18.3904 88.7921Z" fill="#345948"/>
<path d="M47.0782 89.0721C47.0011 88.2898 47.0011 87.4874 46.9625 86.7051C46.7696 82.8939 46.5766 79.0626 46.3837 75.2514C46.1522 70.6579 45.94 66.0844 45.7471 61.4909C45.6699 59.7858 45.612 58.0608 45.5541 56.3557C45.5348 55.4531 45.4577 54.5103 45.5348 53.6076C45.5541 53.4873 45.5541 53.6879 45.5541 53.5274C45.5541 53.2265 45.4384 53.1262 45.1683 53.0059C44.5123 52.7451 43.6828 52.7852 42.9882 52.7652C40.9432 52.705 38.8983 52.7652 36.8533 52.8253C36.4288 52.8454 36.0044 52.8454 35.58 52.8655C35.2713 52.8855 34.7118 52.9658 34.6925 53.387C34.6732 54.5905 34.6346 55.774 34.6153 56.9776C34.3645 58.8431 34.1716 60.7286 33.998 62.6142C33.5928 66.8266 33.3034 71.059 33.2263 75.2915C33.1491 79.6644 33.1877 84.1576 34.0173 88.4703C34.5189 91.058 35.4256 94.7087 38.1458 95.6314C39.3034 96.0126 40.6539 96.0527 41.85 95.9524C42.969 95.8521 44.1072 95.5512 45.0525 94.8892C46.3644 93.9866 47.0011 92.5022 47.1168 90.9176C47.2133 90.2757 47.1361 89.6939 47.0782 89.0721Z" fill="#E7AEB8"/>
<path d="M12.8363 4.80498C12.7399 3.68167 12.4119 2.15718 11.2543 1.79612C11.2158 1.77606 11.1579 1.77606 11.1 1.756C11.0614 1.756 11.0228 1.756 11.0035 1.756C10.1547 1.71588 9.42156 2.25748 8.95854 2.95954C7.74312 4.70468 7.39586 7.11178 7.10647 9.17786C6.99072 10.1608 6.87496 11.1236 6.79779 12.1065C6.73992 12.9089 6.58558 13.7112 7.12576 14.3732C7.74312 15.1755 9.01642 15.4965 9.82671 14.8546C10.5212 14.313 10.9457 13.4304 11.3122 12.6481C11.8138 11.5248 12.1997 10.3212 12.4698 9.11768C12.7784 7.69349 12.9714 6.24923 12.8363 4.80498Z" fill="white"/>
</svg>
