<svg width="46" height="28" viewBox="0 0 46 28" fill="none" xmlns="http://www.w3.org/2000/svg">
<path d="M23.1412 26.8686C33.0612 23.6807 44.2852 16.4955 45.8597 3.58318C45.9563 2.79037 46.0335 1.95874 45.9853 1.15484C45.9659 0.822194 45.2511 0.722399 44.9131 0.849915C38.0598 1.9033 30.912 4.59776 26.377 10.9236C23.798 14.5218 22.3057 19.0735 22.0594 23.7195C22.0111 24.662 21.8994 26.057 22.0008 26.9995C22.0491 27.4098 22.8997 26.9407 23.1412 26.8686Z" fill="#D26E80"/>
<path d="M0.0216538 0C0.0216538 0 -1.54796 17.891 22.0399 27C22.035 27 25.0052 5.31129 0.0216538 0Z" fill="#F0B1BC"/>
</svg>
