<svg width="62" height="37" viewBox="0 0 62 37" fill="none" xmlns="http://www.w3.org/2000/svg">
<path d="M31.1901 36.1746C44.5604 31.8826 59.6883 22.2088 61.8104 4.82427C61.9406 3.75686 62.0447 2.63721 61.9796 1.55487C61.9536 1.10701 60.9902 0.972653 60.5345 1.14433C51.2976 2.56256 41.6637 6.19025 35.5513 14.7071C32.0753 19.5515 30.0639 25.6797 29.7319 31.9349C29.6669 33.2038 29.6343 34.5101 29.771 35.779C29.8361 36.3314 30.8646 36.2717 31.1901 36.1746Z" fill="#F0B1BC"/>
<path d="M0.0291853 0C0.0291853 0 -2.08636 24.0875 29.7057 36.3515C29.6992 36.3515 33.7024 7.15086 0.0291853 0Z" fill="white"/>
</svg>
