<svg width="451" height="56" viewBox="0 0 451 56" fill="none" xmlns="http://www.w3.org/2000/svg">
<path d="M78.9491 41C78.6123 41 78.3367 40.8928 78.1224 40.6785C77.9081 40.4642 77.8009 40.1886 77.8009 39.8518V9.99949C77.8009 9.66269 77.9081 9.38713 78.1224 9.17281C78.3367 8.95848 78.6123 8.85132 78.9491 8.85132H91.4871C93.9671 8.85132 96.1104 9.23404 97.9168 9.99949C99.7539 10.7649 101.178 11.9284 102.188 13.4899C103.229 15.0208 103.749 16.9344 103.749 19.2308C103.749 21.5577 103.229 23.4866 102.188 25.0175C101.178 26.5178 99.7539 27.6353 97.9168 28.3702C96.1104 29.105 93.9671 29.4724 91.4871 29.4724H85.3329V39.8518C85.3329 40.1886 85.2257 40.4642 85.0114 40.6785C84.7971 40.8928 84.5215 41 84.1847 41H78.9491ZM85.1951 23.7775H91.2574C92.8189 23.7775 94.0283 23.3948 94.8856 22.6293C95.7736 21.8639 96.2175 20.7157 96.2175 19.1848C96.2175 17.8376 95.8195 16.7354 95.0234 15.8781C94.258 15.0208 93.0027 14.5922 91.2574 14.5922H85.1951V23.7775ZM109.077 41C108.74 41 108.464 40.8928 108.25 40.6785C108.036 40.4642 107.928 40.1886 107.928 39.8518V9.54022C107.928 9.20343 108.036 8.92787 108.25 8.71354C108.464 8.49922 108.74 8.39205 109.077 8.39205H113.669C113.975 8.39205 114.236 8.49922 114.45 8.71354C114.664 8.92787 114.772 9.20343 114.772 9.54022V39.8518C114.772 40.1886 114.664 40.4642 114.45 40.6785C114.236 40.8928 113.975 41 113.669 41H109.077ZM127.603 41.4593C125.98 41.4593 124.526 41.1531 123.24 40.5407C121.954 39.8978 120.928 39.0405 120.163 37.9688C119.397 36.8972 119.015 35.7031 119.015 34.3866C119.015 32.2127 119.887 30.4981 121.633 29.2428C123.408 27.9874 125.735 27.1301 128.613 26.6709L134.63 25.7983V24.9716C134.63 23.7775 134.354 22.859 133.803 22.216C133.252 21.573 132.288 21.2515 130.91 21.2515C129.899 21.2515 129.088 21.4505 128.476 21.8486C127.863 22.2466 127.389 22.7671 127.052 23.4101C126.807 23.8081 126.455 24.0071 125.996 24.0071H121.633C121.296 24.0071 121.036 23.9153 120.852 23.7316C120.668 23.5172 120.592 23.2723 120.622 22.9967C120.622 22.4762 120.821 21.8639 121.219 21.1597C121.617 20.4555 122.23 19.7666 123.056 19.093C123.883 18.3888 124.939 17.807 126.225 17.3478C127.511 16.8885 129.088 16.6589 130.956 16.6589C132.885 16.6589 134.538 16.8885 135.916 17.3478C137.294 17.807 138.396 18.45 139.222 19.2767C140.049 20.1034 140.662 21.0678 141.06 22.1701C141.458 23.2417 141.657 24.4052 141.657 25.6605V39.8518C141.657 40.1886 141.549 40.4642 141.335 40.6785C141.121 40.8928 140.845 41 140.508 41H136.008C135.701 41 135.441 40.8928 135.227 40.6785C135.013 40.4642 134.905 40.1886 134.905 39.8518V38.1525C134.507 38.7343 133.972 39.2854 133.298 39.8059C132.624 40.2958 131.813 40.6938 130.864 41C129.945 41.3062 128.858 41.4593 127.603 41.4593ZM129.44 36.6829C130.45 36.6829 131.354 36.4686 132.15 36.0399C132.946 35.6113 133.573 34.953 134.033 34.0651C134.492 33.1772 134.722 32.0596 134.722 30.7124V29.9317L130.45 30.6206C128.797 30.8961 127.588 31.3095 126.822 31.8606C126.057 32.4117 125.674 33.0853 125.674 33.8814C125.674 34.4631 125.843 34.9683 126.179 35.3969C126.547 35.8256 127.021 36.1471 127.603 36.3614C128.185 36.5757 128.797 36.6829 129.44 36.6829ZM148.32 41C148.013 41 147.753 40.8928 147.539 40.6785C147.324 40.4642 147.217 40.1886 147.217 39.8518V18.2663C147.217 17.9295 147.324 17.6539 147.539 17.4396C147.753 17.2253 148.013 17.1181 148.32 17.1181H152.82C153.157 17.1181 153.433 17.2253 153.647 17.4396C153.861 17.6539 153.969 17.9295 153.969 18.2663V20.0574C154.765 19.0777 155.79 18.2663 157.046 17.6233C158.301 16.9803 159.832 16.6589 161.638 16.6589C163.445 16.6589 165.022 17.0722 166.369 17.8989C167.747 18.6949 168.818 19.8737 169.584 21.4352C170.38 22.9661 170.778 24.8338 170.778 27.0383V39.8518C170.778 40.1886 170.655 40.4642 170.41 40.6785C170.196 40.8928 169.936 41 169.63 41H164.761C164.424 41 164.149 40.8928 163.935 40.6785C163.72 40.4642 163.613 40.1886 163.613 39.8518V27.3138C163.613 25.6911 163.215 24.4358 162.419 23.5479C161.654 22.6293 160.521 22.1701 159.02 22.1701C157.581 22.1701 156.433 22.6293 155.576 23.5479C154.719 24.4358 154.29 25.6911 154.29 27.3138V39.8518C154.29 40.1886 154.183 40.4642 153.969 40.6785C153.754 40.8928 153.494 41 153.188 41H148.32ZM187.493 41C185.595 41 183.972 40.6938 182.625 40.0815C181.277 39.4385 180.252 38.4587 179.548 37.1422C178.874 35.8256 178.537 34.1722 178.537 32.1821V22.5375H174.955C174.618 22.5375 174.343 22.4303 174.128 22.216C173.914 22.0017 173.807 21.7261 173.807 21.3893V18.2663C173.807 17.9295 173.914 17.6539 174.128 17.4396C174.343 17.2253 174.618 17.1181 174.955 17.1181H178.537V9.54022C178.537 9.20343 178.644 8.92787 178.859 8.71354C179.104 8.49922 179.379 8.39205 179.685 8.39205H184.186C184.523 8.39205 184.798 8.49922 185.013 8.71354C185.227 8.92787 185.334 9.20343 185.334 9.54022V17.1181H191.075C191.381 17.1181 191.642 17.2253 191.856 17.4396C192.07 17.6539 192.177 17.9295 192.177 18.2663V21.3893C192.177 21.7261 192.07 22.0017 191.856 22.216C191.642 22.4303 191.381 22.5375 191.075 22.5375H185.334V31.631C185.334 32.7944 185.533 33.713 185.931 34.3866C186.36 35.0295 187.095 35.351 188.136 35.351H191.488C191.795 35.351 192.055 35.4582 192.269 35.6725C192.484 35.8868 192.591 36.1471 192.591 36.4533V39.8518C192.591 40.1886 192.484 40.4642 192.269 40.6785C192.055 40.8928 191.795 41 191.488 41H187.493ZM203.624 41.4593C202.001 41.4593 200.547 41.1531 199.261 40.5407C197.975 39.8978 196.95 39.0405 196.184 37.9688C195.419 36.8972 195.036 35.7031 195.036 34.3866C195.036 32.2127 195.909 30.4981 197.654 29.2428C199.43 27.9874 201.757 27.1301 204.635 26.6709L210.651 25.7983V24.9716C210.651 23.7775 210.375 22.859 209.824 22.216C209.273 21.573 208.309 21.2515 206.931 21.2515C205.921 21.2515 205.109 21.4505 204.497 21.8486C203.884 22.2466 203.41 22.7671 203.073 23.4101C202.828 23.8081 202.476 24.0071 202.017 24.0071H197.654C197.317 24.0071 197.057 23.9153 196.873 23.7316C196.689 23.5172 196.613 23.2723 196.643 22.9967C196.643 22.4762 196.842 21.8639 197.24 21.1597C197.638 20.4555 198.251 19.7666 199.078 19.093C199.904 18.3888 200.96 17.807 202.246 17.3478C203.532 16.8885 205.109 16.6589 206.977 16.6589C208.906 16.6589 210.559 16.8885 211.937 17.3478C213.315 17.807 214.417 18.45 215.244 19.2767C216.07 20.1034 216.683 21.0678 217.081 22.1701C217.479 23.2417 217.678 24.4052 217.678 25.6605V39.8518C217.678 40.1886 217.571 40.4642 217.356 40.6785C217.142 40.8928 216.866 41 216.53 41H212.029C211.723 41 211.462 40.8928 211.248 40.6785C211.034 40.4642 210.927 40.1886 210.927 39.8518V38.1525C210.529 38.7343 209.993 39.2854 209.319 39.8059C208.646 40.2958 207.834 40.6938 206.885 41C205.967 41.3062 204.88 41.4593 203.624 41.4593ZM205.461 36.6829C206.472 36.6829 207.375 36.4686 208.171 36.0399C208.967 35.6113 209.595 34.953 210.054 34.0651C210.513 33.1772 210.743 32.0596 210.743 30.7124V29.9317L206.472 30.6206C204.818 30.8961 203.609 31.3095 202.843 31.8606C202.078 32.4117 201.695 33.0853 201.695 33.8814C201.695 34.4631 201.864 34.9683 202.201 35.3969C202.568 35.8256 203.043 36.1471 203.624 36.3614C204.206 36.5757 204.818 36.6829 205.461 36.6829ZM232.653 41.4593C230.755 41.4593 229.117 41.2449 227.739 40.8163C226.392 40.357 225.29 39.8059 224.433 39.1629C223.606 38.52 222.978 37.877 222.55 37.234C222.152 36.5604 221.937 35.994 221.907 35.5347C221.876 35.1979 221.983 34.9224 222.228 34.708C222.473 34.4937 222.718 34.3866 222.963 34.3866H227.418C227.51 34.3866 227.602 34.4019 227.693 34.4325C227.785 34.4631 227.877 34.5396 227.969 34.6621C228.367 34.9377 228.78 35.2592 229.209 35.6266C229.638 35.9634 230.128 36.2542 230.679 36.4992C231.26 36.7441 231.98 36.8666 232.837 36.8666C233.848 36.8666 234.705 36.6676 235.409 36.2696C236.113 35.8409 236.465 35.2439 236.465 34.4784C236.465 33.9273 236.297 33.468 235.96 33.1006C235.654 32.7332 235.057 32.3964 234.169 32.0902C233.281 31.784 231.965 31.4472 230.219 31.0798C228.566 30.7124 227.158 30.2225 225.994 29.6102C224.831 28.9978 223.958 28.2324 223.376 27.3138C222.795 26.3647 222.504 25.2318 222.504 23.9153C222.504 22.7212 222.871 21.573 223.606 20.4708C224.371 19.3685 225.489 18.4653 226.959 17.7611C228.428 17.0263 230.265 16.6589 232.47 16.6589C234.154 16.6589 235.623 16.8732 236.879 17.3018C238.165 17.6999 239.236 18.2204 240.094 18.8633C240.951 19.4757 241.594 20.1187 242.023 20.7923C242.482 21.4352 242.727 22.0017 242.757 22.4915C242.788 22.7977 242.696 23.058 242.482 23.2723C242.267 23.4866 242.023 23.5938 241.747 23.5938H237.659C237.506 23.5938 237.369 23.5785 237.246 23.5479C237.124 23.4866 237.017 23.4101 236.925 23.3182C236.557 23.0733 236.175 22.7977 235.777 22.4915C235.409 22.1548 234.965 21.8639 234.445 21.6189C233.924 21.374 233.251 21.2515 232.424 21.2515C231.413 21.2515 230.633 21.4812 230.082 21.9404C229.561 22.3691 229.301 22.9202 229.301 23.5938C229.301 24.0224 229.439 24.4205 229.714 24.7879C229.99 25.1553 230.556 25.4921 231.413 25.7983C232.271 26.1044 233.572 26.4259 235.317 26.7627C237.399 27.1301 239.053 27.6813 240.277 28.4161C241.502 29.1509 242.375 30.0082 242.895 30.988C243.446 31.9371 243.722 32.9628 243.722 34.0651C243.722 35.5041 243.293 36.7901 242.436 37.9229C241.579 39.0252 240.323 39.8978 238.67 40.5407C237.047 41.1531 235.042 41.4593 232.653 41.4593ZM259.522 41C257.624 41 256.001 40.6938 254.654 40.0815C253.307 39.4385 252.281 38.4587 251.577 37.1422C250.903 35.8256 250.567 34.1722 250.567 32.1821V22.5375H246.984C246.648 22.5375 246.372 22.4303 246.158 22.216C245.943 22.0017 245.836 21.7261 245.836 21.3893V18.2663C245.836 17.9295 245.943 17.6539 246.158 17.4396C246.372 17.2253 246.648 17.1181 246.984 17.1181H250.567V9.54022C250.567 9.20343 250.674 8.92787 250.888 8.71354C251.133 8.49922 251.409 8.39205 251.715 8.39205H256.216C256.552 8.39205 256.828 8.49922 257.042 8.71354C257.257 8.92787 257.364 9.20343 257.364 9.54022V17.1181H263.105C263.411 17.1181 263.671 17.2253 263.885 17.4396C264.1 17.6539 264.207 17.9295 264.207 18.2663V21.3893C264.207 21.7261 264.1 22.0017 263.885 22.216C263.671 22.4303 263.411 22.5375 263.105 22.5375H257.364V31.631C257.364 32.7944 257.563 33.713 257.961 34.3866C258.39 35.0295 259.124 35.351 260.165 35.351H263.518C263.824 35.351 264.084 35.4582 264.299 35.6725C264.513 35.8868 264.62 36.1471 264.62 36.4533V39.8518C264.62 40.1886 264.513 40.4642 264.299 40.6785C264.084 40.8928 263.824 41 263.518 41H259.522ZM269.729 41C269.423 41 269.163 40.8928 268.948 40.6785C268.734 40.4642 268.627 40.1886 268.627 39.8518V18.2663C268.627 17.9295 268.734 17.6539 268.948 17.4396C269.163 17.2253 269.423 17.1181 269.729 17.1181H274.322C274.659 17.1181 274.934 17.2253 275.149 17.4396C275.363 17.6539 275.47 17.9295 275.47 18.2663V39.8518C275.47 40.1886 275.363 40.4642 275.149 40.6785C274.934 40.8928 274.659 41 274.322 41H269.729ZM269.591 13.444C269.285 13.444 269.025 13.3368 268.811 13.1225C268.596 12.9082 268.489 12.6326 268.489 12.2958V8.62169C268.489 8.28489 268.596 8.00933 268.811 7.79501C269.025 7.55007 269.285 7.4276 269.591 7.4276H274.414C274.751 7.4276 275.026 7.55007 275.24 7.79501C275.485 8.00933 275.608 8.28489 275.608 8.62169V12.2958C275.608 12.6326 275.485 12.9082 275.24 13.1225C275.026 13.3368 274.751 13.444 274.414 13.444H269.591ZM292.018 41.4593C289.783 41.4593 287.808 41.0459 286.094 40.2192C284.41 39.3926 283.078 38.1985 282.098 36.637C281.118 35.0448 280.583 33.1465 280.491 30.9421C280.46 30.4522 280.445 29.8398 280.445 29.105C280.445 28.3395 280.46 27.7119 280.491 27.222C280.583 24.9869 281.103 23.0886 282.052 21.5271C283.032 19.935 284.379 18.7256 286.094 17.8989C287.808 17.0722 289.783 16.6589 292.018 16.6589C294.07 16.6589 295.815 16.9497 297.254 17.5315C298.693 18.0826 299.872 18.7868 300.79 19.6441C301.709 20.5014 302.383 21.4046 302.811 22.3538C303.27 23.2723 303.515 24.0837 303.546 24.7879C303.577 25.0941 303.469 25.3696 303.225 25.6146C303.01 25.8289 302.75 25.936 302.444 25.936H297.53C297.223 25.936 296.978 25.8595 296.795 25.7064C296.642 25.5227 296.489 25.2778 296.335 24.9716C295.907 23.9 295.356 23.1345 294.682 22.6753C294.009 22.216 293.167 21.9864 292.156 21.9864C290.778 21.9864 289.691 22.4303 288.895 23.3182C288.099 24.2061 287.671 25.5839 287.609 27.4516C287.579 28.6457 287.579 29.7327 287.609 30.7124C287.701 32.6107 288.13 33.9885 288.895 34.8458C289.691 35.7031 290.778 36.1318 292.156 36.1318C293.228 36.1318 294.085 35.9021 294.728 35.4429C295.371 34.9836 295.907 34.2182 296.335 33.1465C296.458 32.8404 296.611 32.6107 296.795 32.4576C296.978 32.2739 297.223 32.1821 297.53 32.1821H302.444C302.75 32.1821 303.01 32.3045 303.225 32.5495C303.469 32.7638 303.577 33.0241 303.546 33.3302C303.515 33.8507 303.362 34.4631 303.087 35.1673C302.842 35.8715 302.428 36.591 301.847 37.3259C301.296 38.0607 300.576 38.7496 299.688 39.3926C298.8 40.0049 297.713 40.5101 296.427 40.9081C295.172 41.2756 293.702 41.4593 292.018 41.4593ZM331.459 41.4593C328.581 41.4593 326.132 40.9847 324.111 40.0355C322.121 39.0558 320.575 37.6474 319.472 35.8103C318.37 33.9426 317.758 31.6769 317.635 29.0131C317.605 27.7578 317.59 26.4106 317.59 24.9716C317.59 23.5326 317.605 22.1548 317.635 20.8382C317.758 18.2051 318.37 15.97 319.472 14.1329C320.605 12.2652 322.182 10.8415 324.203 9.86171C326.224 8.88194 328.643 8.39205 331.459 8.39205C333.511 8.39205 335.378 8.65231 337.062 9.17281C338.746 9.69331 340.201 10.4434 341.425 11.4232C342.65 12.403 343.599 13.5512 344.273 14.8677C344.946 16.1843 345.314 17.6539 345.375 19.2767C345.375 19.5522 345.268 19.7819 345.054 19.9656C344.87 20.1493 344.64 20.2411 344.365 20.2411H339.129C338.762 20.2411 338.471 20.1493 338.257 19.9656C338.042 19.7819 337.874 19.4757 337.751 19.047C337.292 17.2406 336.527 16.0006 335.455 15.327C334.383 14.6534 333.051 14.3166 331.459 14.3166C329.561 14.3166 328.061 14.8371 326.959 15.8781C325.856 16.9191 325.259 18.649 325.167 21.0678C325.076 23.5785 325.076 26.1504 325.167 28.7835C325.259 31.2023 325.856 32.9322 326.959 33.9732C328.061 35.0142 329.561 35.5347 331.459 35.5347C333.051 35.5347 334.383 35.1979 335.455 34.5243C336.557 33.8201 337.323 32.5801 337.751 30.8043C337.874 30.345 338.042 30.0388 338.257 29.8857C338.471 29.702 338.762 29.6102 339.129 29.6102H344.365C344.64 29.6102 344.87 29.702 345.054 29.8857C345.268 30.0694 345.375 30.2991 345.375 30.5746C345.314 32.1974 344.946 33.667 344.273 34.9836C343.599 36.3002 342.65 37.4483 341.425 38.4281C340.201 39.4079 338.746 40.158 337.062 40.6785C335.378 41.199 333.511 41.4593 331.459 41.4593ZM351.178 41C350.842 41 350.566 40.8928 350.352 40.6785C350.137 40.4642 350.03 40.1886 350.03 39.8518V9.54022C350.03 9.20343 350.137 8.92787 350.352 8.71354C350.566 8.49922 350.842 8.39205 351.178 8.39205H355.771C356.077 8.39205 356.338 8.49922 356.552 8.71354C356.766 8.92787 356.873 9.20343 356.873 9.54022V39.8518C356.873 40.1886 356.766 40.4642 356.552 40.6785C356.338 40.8928 356.077 41 355.771 41H351.178ZM371.45 41.4593C369.674 41.4593 368.097 41.0612 366.72 40.2652C365.372 39.4385 364.316 38.2597 363.551 36.7288C362.816 35.1673 362.448 33.2843 362.448 31.0798V18.2663C362.448 17.9295 362.556 17.6539 362.77 17.4396C362.984 17.2253 363.244 17.1181 363.551 17.1181H368.419C368.756 17.1181 369.031 17.2253 369.246 17.4396C369.46 17.6539 369.567 17.9295 369.567 18.2663V30.8043C369.567 34.2335 371.067 35.9481 374.068 35.9481C375.507 35.9481 376.64 35.5041 377.466 34.6162C378.324 33.6977 378.752 32.427 378.752 30.8043V18.2663C378.752 17.9295 378.86 17.6539 379.074 17.4396C379.288 17.2253 379.564 17.1181 379.901 17.1181H384.769C385.075 17.1181 385.335 17.2253 385.55 17.4396C385.764 17.6539 385.871 17.9295 385.871 18.2663V39.8518C385.871 40.1886 385.764 40.4642 385.55 40.6785C385.335 40.8928 385.075 41 384.769 41H380.268C379.931 41 379.656 40.8928 379.441 40.6785C379.227 40.4642 379.12 40.1886 379.12 39.8518V38.0607C378.324 39.1629 377.298 40.0049 376.043 40.5867C374.787 41.1684 373.256 41.4593 371.45 41.4593ZM405.521 41.4593C403.776 41.4593 402.322 41.1684 401.158 40.5867C399.995 39.9743 399.046 39.2089 398.311 38.2903V39.8518C398.311 40.1886 398.204 40.4642 397.989 40.6785C397.775 40.8928 397.499 41 397.163 41H392.799C392.463 41 392.187 40.8928 391.973 40.6785C391.758 40.4642 391.651 40.1886 391.651 39.8518V9.54022C391.651 9.20343 391.758 8.92787 391.973 8.71354C392.187 8.49922 392.463 8.39205 392.799 8.39205H397.53C397.836 8.39205 398.096 8.49922 398.311 8.71354C398.525 8.92787 398.632 9.20343 398.632 9.54022V19.5522C399.398 18.6949 400.347 18.006 401.48 17.4855C402.612 16.9344 403.96 16.6589 405.521 16.6589C407.113 16.6589 408.491 16.9344 409.655 17.4855C410.849 18.006 411.859 18.7562 412.686 19.7359C413.512 20.6851 414.14 21.818 414.569 23.1345C415.028 24.4511 415.273 25.9054 415.304 27.4976C415.334 28.0487 415.349 28.5692 415.349 29.0591C415.349 29.5183 415.334 30.0388 415.304 30.6206C415.242 32.2433 414.982 33.7283 414.523 35.0755C414.094 36.392 413.466 37.5402 412.64 38.52C411.844 39.4691 410.849 40.2039 409.655 40.7244C408.491 41.2143 407.113 41.4593 405.521 41.4593ZM403.454 35.9481C404.618 35.9481 405.536 35.7031 406.21 35.2132C406.884 34.6927 407.358 34.0191 407.634 33.1925C407.94 32.3658 408.124 31.4626 408.185 30.4828C408.246 29.5336 408.246 28.5845 408.185 27.6353C408.124 26.6556 407.94 25.7523 407.634 24.9257C407.358 24.099 406.884 23.4407 406.21 22.9508C405.536 22.4303 404.618 22.1701 403.454 22.1701C402.352 22.1701 401.449 22.415 400.745 22.9049C400.071 23.3948 399.551 24.0224 399.183 24.7879C398.846 25.5227 398.663 26.3188 398.632 27.1761C398.602 27.7272 398.586 28.2936 398.586 28.8754C398.586 29.4571 398.602 30.0388 398.632 30.6206C398.693 31.5391 398.877 32.3964 399.183 33.1925C399.489 33.9885 399.995 34.6468 400.699 35.1673C401.403 35.6878 402.322 35.9481 403.454 35.9481Z" fill="#FDFDFD"/>
<path d="M31.1901 41.1746C44.5604 36.8826 59.6883 27.2088 61.8104 9.82427C61.9406 8.75686 62.0447 7.63721 61.9796 6.55487C61.9536 6.10701 60.9902 5.97265 60.5345 6.14433C51.2976 7.56256 41.6637 11.1902 35.5513 19.7071C32.0753 24.5515 30.0639 30.6797 29.7319 36.9349C29.6669 38.2038 29.6343 39.5101 29.771 40.779C29.8361 41.3314 30.8646 41.2717 31.1901 41.1746Z" fill="#F0B1BC"/>
<path d="M0.0291853 5C0.0291853 5 -2.08636 29.0875 29.7057 41.3515C29.6992 41.3515 33.7024 12.1509 0.0291853 5Z" fill="white"/>
</svg>
